<mxfile host="app.diagrams.net" agent="Mozilla/5.0 (Windows NT 10.0; Win64; x64) AppleWebKit/537.36 (KHTML, like Gecko) Chrome/137.0.0.0 Safari/537.36" version="27.1.4">
  <diagram id="R2lEEEUBdFMjLlhIrx00" name="Page-1">
    <mxGraphModel dx="1708" dy="875" grid="1" gridSize="10" guides="1" tooltips="1" connect="1" arrows="1" fold="1" page="1" pageScale="1" pageWidth="850" pageHeight="1100" math="0" shadow="0" extFonts="Permanent Marker^https://fonts.googleapis.com/css?family=Permanent+Marker">
      <root>
        <mxCell id="0" />
        <mxCell id="1" parent="0" />
        <mxCell id="X0OYVDZu3qmuTNWSu-ND-4" value="users" style="shape=table;startSize=20;container=1;collapsible=0;childLayout=tableLayout;" vertex="1" parent="1">
          <mxGeometry x="330" y="10" width="180" height="40" as="geometry" />
        </mxCell>
        <mxCell id="X0OYVDZu3qmuTNWSu-ND-5" value="" style="shape=tableRow;horizontal=0;startSize=0;swimlaneHead=0;swimlaneBody=0;strokeColor=inherit;top=0;left=0;bottom=0;right=0;collapsible=0;dropTarget=0;fillColor=none;points=[[0,0.5],[1,0.5]];portConstraint=eastwest;" vertex="1" parent="X0OYVDZu3qmuTNWSu-ND-4">
          <mxGeometry y="20" width="180" height="20" as="geometry" />
        </mxCell>
        <mxCell id="X0OYVDZu3qmuTNWSu-ND-6" value="&lt;font&gt;&lt;u&gt;ID&lt;/u&gt;&lt;/font&gt;" style="shape=partialRectangle;html=1;whiteSpace=wrap;connectable=0;strokeColor=inherit;overflow=hidden;fillColor=none;top=0;left=0;bottom=0;right=0;pointerEvents=1;" vertex="1" parent="X0OYVDZu3qmuTNWSu-ND-5">
          <mxGeometry width="60" height="20" as="geometry">
            <mxRectangle width="60" height="20" as="alternateBounds" />
          </mxGeometry>
        </mxCell>
        <mxCell id="X0OYVDZu3qmuTNWSu-ND-7" value="password" style="shape=partialRectangle;html=1;whiteSpace=wrap;connectable=0;strokeColor=inherit;overflow=hidden;fillColor=none;top=0;left=0;bottom=0;right=0;pointerEvents=1;" vertex="1" parent="X0OYVDZu3qmuTNWSu-ND-5">
          <mxGeometry x="60" width="60" height="20" as="geometry">
            <mxRectangle width="60" height="20" as="alternateBounds" />
          </mxGeometry>
        </mxCell>
        <mxCell id="X0OYVDZu3qmuTNWSu-ND-8" value="Role" style="shape=partialRectangle;html=1;whiteSpace=wrap;connectable=0;strokeColor=inherit;overflow=hidden;fillColor=none;top=0;left=0;bottom=0;right=0;pointerEvents=1;" vertex="1" parent="X0OYVDZu3qmuTNWSu-ND-5">
          <mxGeometry x="120" width="60" height="20" as="geometry">
            <mxRectangle width="60" height="20" as="alternateBounds" />
          </mxGeometry>
        </mxCell>
        <mxCell id="X0OYVDZu3qmuTNWSu-ND-9" value="Student" style="shape=table;startSize=20;container=1;collapsible=0;childLayout=tableLayout;" vertex="1" parent="1">
          <mxGeometry x="220" y="70" width="420" height="40" as="geometry" />
        </mxCell>
        <mxCell id="X0OYVDZu3qmuTNWSu-ND-10" value="" style="shape=tableRow;horizontal=0;startSize=0;swimlaneHead=0;swimlaneBody=0;strokeColor=inherit;top=0;left=0;bottom=0;right=0;collapsible=0;dropTarget=0;fillColor=none;points=[[0,0.5],[1,0.5]];portConstraint=eastwest;" vertex="1" parent="X0OYVDZu3qmuTNWSu-ND-9">
          <mxGeometry y="20" width="420" height="20" as="geometry" />
        </mxCell>
        <mxCell id="X0OYVDZu3qmuTNWSu-ND-11" value="&lt;u&gt;ID&lt;/u&gt;" style="shape=partialRectangle;html=1;whiteSpace=wrap;connectable=0;strokeColor=inherit;overflow=hidden;fillColor=none;top=0;left=0;bottom=0;right=0;pointerEvents=1;" vertex="1" parent="X0OYVDZu3qmuTNWSu-ND-10">
          <mxGeometry width="60" height="20" as="geometry">
            <mxRectangle width="60" height="20" as="alternateBounds" />
          </mxGeometry>
        </mxCell>
        <mxCell id="X0OYVDZu3qmuTNWSu-ND-12" value="Name" style="shape=partialRectangle;html=1;whiteSpace=wrap;connectable=0;strokeColor=inherit;overflow=hidden;fillColor=none;top=0;left=0;bottom=0;right=0;pointerEvents=1;" vertex="1" parent="X0OYVDZu3qmuTNWSu-ND-10">
          <mxGeometry x="60" width="60" height="20" as="geometry">
            <mxRectangle width="60" height="20" as="alternateBounds" />
          </mxGeometry>
        </mxCell>
        <mxCell id="X0OYVDZu3qmuTNWSu-ND-13" value="address" style="shape=partialRectangle;html=1;whiteSpace=wrap;connectable=0;strokeColor=inherit;overflow=hidden;fillColor=none;top=0;left=0;bottom=0;right=0;pointerEvents=1;" vertex="1" parent="X0OYVDZu3qmuTNWSu-ND-10">
          <mxGeometry x="120" width="60" height="20" as="geometry">
            <mxRectangle width="60" height="20" as="alternateBounds" />
          </mxGeometry>
        </mxCell>
        <mxCell id="X0OYVDZu3qmuTNWSu-ND-14" value="gender" style="shape=partialRectangle;html=1;whiteSpace=wrap;connectable=0;strokeColor=inherit;overflow=hidden;fillColor=none;top=0;left=0;bottom=0;right=0;pointerEvents=1;" vertex="1" parent="X0OYVDZu3qmuTNWSu-ND-10">
          <mxGeometry x="180" width="60" height="20" as="geometry">
            <mxRectangle width="60" height="20" as="alternateBounds" />
          </mxGeometry>
        </mxCell>
        <mxCell id="X0OYVDZu3qmuTNWSu-ND-15" value="Dept_ID" style="shape=partialRectangle;html=1;whiteSpace=wrap;connectable=0;strokeColor=inherit;overflow=hidden;fillColor=none;top=0;left=0;bottom=0;right=0;pointerEvents=1;" vertex="1" parent="X0OYVDZu3qmuTNWSu-ND-10">
          <mxGeometry x="240" width="60" height="20" as="geometry">
            <mxRectangle width="60" height="20" as="alternateBounds" />
          </mxGeometry>
        </mxCell>
        <mxCell id="X0OYVDZu3qmuTNWSu-ND-16" value="phone_num" style="shape=partialRectangle;html=1;whiteSpace=wrap;connectable=0;strokeColor=inherit;overflow=hidden;fillColor=none;top=0;left=0;bottom=0;right=0;pointerEvents=1;" vertex="1" parent="X0OYVDZu3qmuTNWSu-ND-10">
          <mxGeometry x="300" width="60" height="20" as="geometry">
            <mxRectangle width="60" height="20" as="alternateBounds" />
          </mxGeometry>
        </mxCell>
        <mxCell id="X0OYVDZu3qmuTNWSu-ND-17" value="personal_mail" style="shape=partialRectangle;html=1;whiteSpace=wrap;connectable=0;strokeColor=inherit;overflow=hidden;fillColor=none;top=0;left=0;bottom=0;right=0;pointerEvents=1;" vertex="1" parent="X0OYVDZu3qmuTNWSu-ND-10">
          <mxGeometry x="360" width="60" height="20" as="geometry">
            <mxRectangle width="60" height="20" as="alternateBounds" />
          </mxGeometry>
        </mxCell>
        <mxCell id="X0OYVDZu3qmuTNWSu-ND-18" value="lecturers" style="shape=table;startSize=20;container=1;collapsible=0;childLayout=tableLayout;" vertex="1" parent="1">
          <mxGeometry x="220" y="130" width="420" height="40" as="geometry" />
        </mxCell>
        <mxCell id="X0OYVDZu3qmuTNWSu-ND-19" value="" style="shape=tableRow;horizontal=0;startSize=0;swimlaneHead=0;swimlaneBody=0;strokeColor=inherit;top=0;left=0;bottom=0;right=0;collapsible=0;dropTarget=0;fillColor=none;points=[[0,0.5],[1,0.5]];portConstraint=eastwest;" vertex="1" parent="X0OYVDZu3qmuTNWSu-ND-18">
          <mxGeometry y="20" width="420" height="20" as="geometry" />
        </mxCell>
        <mxCell id="X0OYVDZu3qmuTNWSu-ND-20" value="&lt;u&gt;ID&lt;/u&gt;" style="shape=partialRectangle;html=1;whiteSpace=wrap;connectable=0;strokeColor=inherit;overflow=hidden;fillColor=none;top=0;left=0;bottom=0;right=0;pointerEvents=1;" vertex="1" parent="X0OYVDZu3qmuTNWSu-ND-19">
          <mxGeometry width="60" height="20" as="geometry">
            <mxRectangle width="60" height="20" as="alternateBounds" />
          </mxGeometry>
        </mxCell>
        <mxCell id="X0OYVDZu3qmuTNWSu-ND-21" value="Name" style="shape=partialRectangle;html=1;whiteSpace=wrap;connectable=0;strokeColor=inherit;overflow=hidden;fillColor=none;top=0;left=0;bottom=0;right=0;pointerEvents=1;" vertex="1" parent="X0OYVDZu3qmuTNWSu-ND-19">
          <mxGeometry x="60" width="60" height="20" as="geometry">
            <mxRectangle width="60" height="20" as="alternateBounds" />
          </mxGeometry>
        </mxCell>
        <mxCell id="X0OYVDZu3qmuTNWSu-ND-22" value="address" style="shape=partialRectangle;html=1;whiteSpace=wrap;connectable=0;strokeColor=inherit;overflow=hidden;fillColor=none;top=0;left=0;bottom=0;right=0;pointerEvents=1;" vertex="1" parent="X0OYVDZu3qmuTNWSu-ND-19">
          <mxGeometry x="120" width="60" height="20" as="geometry">
            <mxRectangle width="60" height="20" as="alternateBounds" />
          </mxGeometry>
        </mxCell>
        <mxCell id="X0OYVDZu3qmuTNWSu-ND-23" value="gender" style="shape=partialRectangle;html=1;whiteSpace=wrap;connectable=0;strokeColor=inherit;overflow=hidden;fillColor=none;top=0;left=0;bottom=0;right=0;pointerEvents=1;" vertex="1" parent="X0OYVDZu3qmuTNWSu-ND-19">
          <mxGeometry x="180" width="60" height="20" as="geometry">
            <mxRectangle width="60" height="20" as="alternateBounds" />
          </mxGeometry>
        </mxCell>
        <mxCell id="X0OYVDZu3qmuTNWSu-ND-24" value="Dept_ID" style="shape=partialRectangle;html=1;whiteSpace=wrap;connectable=0;strokeColor=inherit;overflow=hidden;fillColor=none;top=0;left=0;bottom=0;right=0;pointerEvents=1;" vertex="1" parent="X0OYVDZu3qmuTNWSu-ND-19">
          <mxGeometry x="240" width="60" height="20" as="geometry">
            <mxRectangle width="60" height="20" as="alternateBounds" />
          </mxGeometry>
        </mxCell>
        <mxCell id="X0OYVDZu3qmuTNWSu-ND-25" value="phone_num" style="shape=partialRectangle;html=1;whiteSpace=wrap;connectable=0;strokeColor=inherit;overflow=hidden;fillColor=none;top=0;left=0;bottom=0;right=0;pointerEvents=1;" vertex="1" parent="X0OYVDZu3qmuTNWSu-ND-19">
          <mxGeometry x="300" width="60" height="20" as="geometry">
            <mxRectangle width="60" height="20" as="alternateBounds" />
          </mxGeometry>
        </mxCell>
        <mxCell id="X0OYVDZu3qmuTNWSu-ND-26" value="personal_mail" style="shape=partialRectangle;html=1;whiteSpace=wrap;connectable=0;strokeColor=inherit;overflow=hidden;fillColor=none;top=0;left=0;bottom=0;right=0;pointerEvents=1;" vertex="1" parent="X0OYVDZu3qmuTNWSu-ND-19">
          <mxGeometry x="360" width="60" height="20" as="geometry">
            <mxRectangle width="60" height="20" as="alternateBounds" />
          </mxGeometry>
        </mxCell>
        <mxCell id="X0OYVDZu3qmuTNWSu-ND-27" value="Technical_officers" style="shape=table;startSize=20;container=1;collapsible=0;childLayout=tableLayout;" vertex="1" parent="1">
          <mxGeometry x="220" y="200" width="420" height="40" as="geometry" />
        </mxCell>
        <mxCell id="X0OYVDZu3qmuTNWSu-ND-28" value="" style="shape=tableRow;horizontal=0;startSize=0;swimlaneHead=0;swimlaneBody=0;strokeColor=inherit;top=0;left=0;bottom=0;right=0;collapsible=0;dropTarget=0;fillColor=none;points=[[0,0.5],[1,0.5]];portConstraint=eastwest;" vertex="1" parent="X0OYVDZu3qmuTNWSu-ND-27">
          <mxGeometry y="20" width="420" height="20" as="geometry" />
        </mxCell>
        <mxCell id="X0OYVDZu3qmuTNWSu-ND-29" value="&lt;u&gt;ID&lt;/u&gt;" style="shape=partialRectangle;html=1;whiteSpace=wrap;connectable=0;strokeColor=inherit;overflow=hidden;fillColor=none;top=0;left=0;bottom=0;right=0;pointerEvents=1;" vertex="1" parent="X0OYVDZu3qmuTNWSu-ND-28">
          <mxGeometry width="60" height="20" as="geometry">
            <mxRectangle width="60" height="20" as="alternateBounds" />
          </mxGeometry>
        </mxCell>
        <mxCell id="X0OYVDZu3qmuTNWSu-ND-30" value="Name" style="shape=partialRectangle;html=1;whiteSpace=wrap;connectable=0;strokeColor=inherit;overflow=hidden;fillColor=none;top=0;left=0;bottom=0;right=0;pointerEvents=1;" vertex="1" parent="X0OYVDZu3qmuTNWSu-ND-28">
          <mxGeometry x="60" width="60" height="20" as="geometry">
            <mxRectangle width="60" height="20" as="alternateBounds" />
          </mxGeometry>
        </mxCell>
        <mxCell id="X0OYVDZu3qmuTNWSu-ND-31" value="address" style="shape=partialRectangle;html=1;whiteSpace=wrap;connectable=0;strokeColor=inherit;overflow=hidden;fillColor=none;top=0;left=0;bottom=0;right=0;pointerEvents=1;" vertex="1" parent="X0OYVDZu3qmuTNWSu-ND-28">
          <mxGeometry x="120" width="60" height="20" as="geometry">
            <mxRectangle width="60" height="20" as="alternateBounds" />
          </mxGeometry>
        </mxCell>
        <mxCell id="X0OYVDZu3qmuTNWSu-ND-32" value="gender" style="shape=partialRectangle;html=1;whiteSpace=wrap;connectable=0;strokeColor=inherit;overflow=hidden;fillColor=none;top=0;left=0;bottom=0;right=0;pointerEvents=1;" vertex="1" parent="X0OYVDZu3qmuTNWSu-ND-28">
          <mxGeometry x="180" width="60" height="20" as="geometry">
            <mxRectangle width="60" height="20" as="alternateBounds" />
          </mxGeometry>
        </mxCell>
        <mxCell id="X0OYVDZu3qmuTNWSu-ND-33" value="Dept_ID" style="shape=partialRectangle;html=1;whiteSpace=wrap;connectable=0;strokeColor=inherit;overflow=hidden;fillColor=none;top=0;left=0;bottom=0;right=0;pointerEvents=1;" vertex="1" parent="X0OYVDZu3qmuTNWSu-ND-28">
          <mxGeometry x="240" width="60" height="20" as="geometry">
            <mxRectangle width="60" height="20" as="alternateBounds" />
          </mxGeometry>
        </mxCell>
        <mxCell id="X0OYVDZu3qmuTNWSu-ND-34" value="phone_num" style="shape=partialRectangle;html=1;whiteSpace=wrap;connectable=0;strokeColor=inherit;overflow=hidden;fillColor=none;top=0;left=0;bottom=0;right=0;pointerEvents=1;" vertex="1" parent="X0OYVDZu3qmuTNWSu-ND-28">
          <mxGeometry x="300" width="60" height="20" as="geometry">
            <mxRectangle width="60" height="20" as="alternateBounds" />
          </mxGeometry>
        </mxCell>
        <mxCell id="X0OYVDZu3qmuTNWSu-ND-35" value="personal_mail" style="shape=partialRectangle;html=1;whiteSpace=wrap;connectable=0;strokeColor=inherit;overflow=hidden;fillColor=none;top=0;left=0;bottom=0;right=0;pointerEvents=1;" vertex="1" parent="X0OYVDZu3qmuTNWSu-ND-28">
          <mxGeometry x="360" width="60" height="20" as="geometry">
            <mxRectangle width="60" height="20" as="alternateBounds" />
          </mxGeometry>
        </mxCell>
        <mxCell id="X0OYVDZu3qmuTNWSu-ND-36" value="Instructors" style="shape=table;startSize=20;container=1;collapsible=0;childLayout=tableLayout;" vertex="1" parent="1">
          <mxGeometry x="220" y="270" width="420" height="40" as="geometry" />
        </mxCell>
        <mxCell id="X0OYVDZu3qmuTNWSu-ND-37" value="" style="shape=tableRow;horizontal=0;startSize=0;swimlaneHead=0;swimlaneBody=0;strokeColor=inherit;top=0;left=0;bottom=0;right=0;collapsible=0;dropTarget=0;fillColor=none;points=[[0,0.5],[1,0.5]];portConstraint=eastwest;" vertex="1" parent="X0OYVDZu3qmuTNWSu-ND-36">
          <mxGeometry y="20" width="420" height="20" as="geometry" />
        </mxCell>
        <mxCell id="X0OYVDZu3qmuTNWSu-ND-38" value="&lt;u&gt;ID&lt;/u&gt;" style="shape=partialRectangle;html=1;whiteSpace=wrap;connectable=0;strokeColor=inherit;overflow=hidden;fillColor=none;top=0;left=0;bottom=0;right=0;pointerEvents=1;" vertex="1" parent="X0OYVDZu3qmuTNWSu-ND-37">
          <mxGeometry width="60" height="20" as="geometry">
            <mxRectangle width="60" height="20" as="alternateBounds" />
          </mxGeometry>
        </mxCell>
        <mxCell id="X0OYVDZu3qmuTNWSu-ND-39" value="Name" style="shape=partialRectangle;html=1;whiteSpace=wrap;connectable=0;strokeColor=inherit;overflow=hidden;fillColor=none;top=0;left=0;bottom=0;right=0;pointerEvents=1;" vertex="1" parent="X0OYVDZu3qmuTNWSu-ND-37">
          <mxGeometry x="60" width="60" height="20" as="geometry">
            <mxRectangle width="60" height="20" as="alternateBounds" />
          </mxGeometry>
        </mxCell>
        <mxCell id="X0OYVDZu3qmuTNWSu-ND-40" value="address" style="shape=partialRectangle;html=1;whiteSpace=wrap;connectable=0;strokeColor=inherit;overflow=hidden;fillColor=none;top=0;left=0;bottom=0;right=0;pointerEvents=1;" vertex="1" parent="X0OYVDZu3qmuTNWSu-ND-37">
          <mxGeometry x="120" width="60" height="20" as="geometry">
            <mxRectangle width="60" height="20" as="alternateBounds" />
          </mxGeometry>
        </mxCell>
        <mxCell id="X0OYVDZu3qmuTNWSu-ND-41" value="gender" style="shape=partialRectangle;html=1;whiteSpace=wrap;connectable=0;strokeColor=inherit;overflow=hidden;fillColor=none;top=0;left=0;bottom=0;right=0;pointerEvents=1;" vertex="1" parent="X0OYVDZu3qmuTNWSu-ND-37">
          <mxGeometry x="180" width="60" height="20" as="geometry">
            <mxRectangle width="60" height="20" as="alternateBounds" />
          </mxGeometry>
        </mxCell>
        <mxCell id="X0OYVDZu3qmuTNWSu-ND-42" value="Dept_ID" style="shape=partialRectangle;html=1;whiteSpace=wrap;connectable=0;strokeColor=inherit;overflow=hidden;fillColor=none;top=0;left=0;bottom=0;right=0;pointerEvents=1;" vertex="1" parent="X0OYVDZu3qmuTNWSu-ND-37">
          <mxGeometry x="240" width="60" height="20" as="geometry">
            <mxRectangle width="60" height="20" as="alternateBounds" />
          </mxGeometry>
        </mxCell>
        <mxCell id="X0OYVDZu3qmuTNWSu-ND-43" value="phone_num" style="shape=partialRectangle;html=1;whiteSpace=wrap;connectable=0;strokeColor=inherit;overflow=hidden;fillColor=none;top=0;left=0;bottom=0;right=0;pointerEvents=1;" vertex="1" parent="X0OYVDZu3qmuTNWSu-ND-37">
          <mxGeometry x="300" width="60" height="20" as="geometry">
            <mxRectangle width="60" height="20" as="alternateBounds" />
          </mxGeometry>
        </mxCell>
        <mxCell id="X0OYVDZu3qmuTNWSu-ND-44" value="personal_mail" style="shape=partialRectangle;html=1;whiteSpace=wrap;connectable=0;strokeColor=inherit;overflow=hidden;fillColor=none;top=0;left=0;bottom=0;right=0;pointerEvents=1;" vertex="1" parent="X0OYVDZu3qmuTNWSu-ND-37">
          <mxGeometry x="360" width="60" height="20" as="geometry">
            <mxRectangle width="60" height="20" as="alternateBounds" />
          </mxGeometry>
        </mxCell>
        <mxCell id="X0OYVDZu3qmuTNWSu-ND-45" value="Subjects" style="shape=table;startSize=20;container=1;collapsible=0;childLayout=tableLayout;" vertex="1" parent="1">
          <mxGeometry x="280" y="340" width="240" height="40" as="geometry" />
        </mxCell>
        <mxCell id="X0OYVDZu3qmuTNWSu-ND-46" value="" style="shape=tableRow;horizontal=0;startSize=0;swimlaneHead=0;swimlaneBody=0;strokeColor=inherit;top=0;left=0;bottom=0;right=0;collapsible=0;dropTarget=0;fillColor=none;points=[[0,0.5],[1,0.5]];portConstraint=eastwest;" vertex="1" parent="X0OYVDZu3qmuTNWSu-ND-45">
          <mxGeometry y="20" width="240" height="20" as="geometry" />
        </mxCell>
        <mxCell id="X0OYVDZu3qmuTNWSu-ND-47" value="course_ode" style="shape=partialRectangle;html=1;whiteSpace=wrap;connectable=0;strokeColor=inherit;overflow=hidden;fillColor=none;top=0;left=0;bottom=0;right=0;pointerEvents=1;" vertex="1" parent="X0OYVDZu3qmuTNWSu-ND-46">
          <mxGeometry width="60" height="20" as="geometry">
            <mxRectangle width="60" height="20" as="alternateBounds" />
          </mxGeometry>
        </mxCell>
        <mxCell id="X0OYVDZu3qmuTNWSu-ND-48" value="name" style="shape=partialRectangle;html=1;whiteSpace=wrap;connectable=0;strokeColor=inherit;overflow=hidden;fillColor=none;top=0;left=0;bottom=0;right=0;pointerEvents=1;" vertex="1" parent="X0OYVDZu3qmuTNWSu-ND-46">
          <mxGeometry x="60" width="60" height="20" as="geometry">
            <mxRectangle width="60" height="20" as="alternateBounds" />
          </mxGeometry>
        </mxCell>
        <mxCell id="X0OYVDZu3qmuTNWSu-ND-49" value="credit" style="shape=partialRectangle;html=1;whiteSpace=wrap;connectable=0;strokeColor=inherit;overflow=hidden;fillColor=none;top=0;left=0;bottom=0;right=0;pointerEvents=1;" vertex="1" parent="X0OYVDZu3qmuTNWSu-ND-46">
          <mxGeometry x="120" width="60" height="20" as="geometry">
            <mxRectangle width="60" height="20" as="alternateBounds" />
          </mxGeometry>
        </mxCell>
        <mxCell id="X0OYVDZu3qmuTNWSu-ND-50" value="Dept_ID" style="shape=partialRectangle;html=1;whiteSpace=wrap;connectable=0;strokeColor=inherit;overflow=hidden;fillColor=none;top=0;left=0;bottom=0;right=0;pointerEvents=1;" vertex="1" parent="X0OYVDZu3qmuTNWSu-ND-46">
          <mxGeometry x="180" width="60" height="20" as="geometry">
            <mxRectangle width="60" height="20" as="alternateBounds" />
          </mxGeometry>
        </mxCell>
        <mxCell id="X0OYVDZu3qmuTNWSu-ND-51" value="laboratory" style="shape=table;startSize=20;container=1;collapsible=0;childLayout=tableLayout;" vertex="1" parent="1">
          <mxGeometry x="310" y="500" width="180" height="40" as="geometry" />
        </mxCell>
        <mxCell id="X0OYVDZu3qmuTNWSu-ND-52" value="" style="shape=tableRow;horizontal=0;startSize=0;swimlaneHead=0;swimlaneBody=0;strokeColor=inherit;top=0;left=0;bottom=0;right=0;collapsible=0;dropTarget=0;fillColor=none;points=[[0,0.5],[1,0.5]];portConstraint=eastwest;" vertex="1" parent="X0OYVDZu3qmuTNWSu-ND-51">
          <mxGeometry y="20" width="180" height="20" as="geometry" />
        </mxCell>
        <mxCell id="X0OYVDZu3qmuTNWSu-ND-53" value="Lab_code" style="shape=partialRectangle;html=1;whiteSpace=wrap;connectable=0;strokeColor=inherit;overflow=hidden;fillColor=none;top=0;left=0;bottom=0;right=0;pointerEvents=1;" vertex="1" parent="X0OYVDZu3qmuTNWSu-ND-52">
          <mxGeometry width="60" height="20" as="geometry">
            <mxRectangle width="60" height="20" as="alternateBounds" />
          </mxGeometry>
        </mxCell>
        <mxCell id="X0OYVDZu3qmuTNWSu-ND-54" value="Name" style="shape=partialRectangle;html=1;whiteSpace=wrap;connectable=0;strokeColor=inherit;overflow=hidden;fillColor=none;top=0;left=0;bottom=0;right=0;pointerEvents=1;" vertex="1" parent="X0OYVDZu3qmuTNWSu-ND-52">
          <mxGeometry x="60" width="60" height="20" as="geometry">
            <mxRectangle width="60" height="20" as="alternateBounds" />
          </mxGeometry>
        </mxCell>
        <mxCell id="X0OYVDZu3qmuTNWSu-ND-55" value="Dept_ID&lt;table&gt;&lt;tbody&gt;&lt;tr&gt;&lt;td&gt;&lt;br&gt;&lt;/td&gt;&lt;td&gt;&lt;br&gt;&lt;/td&gt;&lt;td&gt;&lt;br&gt;&lt;/td&gt;&lt;td&gt;&lt;br&gt;&lt;/td&gt;&lt;/tr&gt;&lt;/tbody&gt;&lt;/table&gt;" style="shape=partialRectangle;html=1;whiteSpace=wrap;connectable=0;strokeColor=inherit;overflow=hidden;fillColor=none;top=0;left=0;bottom=0;right=0;pointerEvents=1;" vertex="1" parent="X0OYVDZu3qmuTNWSu-ND-52">
          <mxGeometry x="120" width="60" height="20" as="geometry">
            <mxRectangle width="60" height="20" as="alternateBounds" />
          </mxGeometry>
        </mxCell>
        <mxCell id="X0OYVDZu3qmuTNWSu-ND-56" value="instrument_info" style="shape=table;startSize=20;container=1;collapsible=0;childLayout=tableLayout;" vertex="1" parent="1">
          <mxGeometry x="200" y="570" width="380" height="40" as="geometry" />
        </mxCell>
        <mxCell id="X0OYVDZu3qmuTNWSu-ND-57" value="" style="shape=tableRow;horizontal=0;startSize=0;swimlaneHead=0;swimlaneBody=0;strokeColor=inherit;top=0;left=0;bottom=0;right=0;collapsible=0;dropTarget=0;fillColor=none;points=[[0,0.5],[1,0.5]];portConstraint=eastwest;" vertex="1" parent="X0OYVDZu3qmuTNWSu-ND-56">
          <mxGeometry y="20" width="380" height="20" as="geometry" />
        </mxCell>
        <mxCell id="X0OYVDZu3qmuTNWSu-ND-58" value="Instrument_code" style="shape=partialRectangle;html=1;whiteSpace=wrap;connectable=0;strokeColor=inherit;overflow=hidden;fillColor=none;top=0;left=0;bottom=0;right=0;pointerEvents=1;" vertex="1" parent="X0OYVDZu3qmuTNWSu-ND-57">
          <mxGeometry width="96" height="20" as="geometry">
            <mxRectangle width="96" height="20" as="alternateBounds" />
          </mxGeometry>
        </mxCell>
        <mxCell id="X0OYVDZu3qmuTNWSu-ND-59" value="Name" style="shape=partialRectangle;html=1;whiteSpace=wrap;connectable=0;strokeColor=inherit;overflow=hidden;fillColor=none;top=0;left=0;bottom=0;right=0;pointerEvents=1;" vertex="1" parent="X0OYVDZu3qmuTNWSu-ND-57">
          <mxGeometry x="96" width="94" height="20" as="geometry">
            <mxRectangle width="94" height="20" as="alternateBounds" />
          </mxGeometry>
        </mxCell>
        <mxCell id="X0OYVDZu3qmuTNWSu-ND-60" value="Quantity" style="shape=partialRectangle;html=1;whiteSpace=wrap;connectable=0;strokeColor=inherit;overflow=hidden;fillColor=none;top=0;left=0;bottom=0;right=0;pointerEvents=1;" vertex="1" parent="X0OYVDZu3qmuTNWSu-ND-57">
          <mxGeometry x="190" width="96" height="20" as="geometry">
            <mxRectangle width="96" height="20" as="alternateBounds" />
          </mxGeometry>
        </mxCell>
        <mxCell id="X0OYVDZu3qmuTNWSu-ND-61" value="Lab_code" style="shape=partialRectangle;html=1;whiteSpace=wrap;connectable=0;strokeColor=inherit;overflow=hidden;fillColor=none;top=0;left=0;bottom=0;right=0;pointerEvents=1;" vertex="1" parent="X0OYVDZu3qmuTNWSu-ND-57">
          <mxGeometry x="286" width="94" height="20" as="geometry">
            <mxRectangle width="94" height="20" as="alternateBounds" />
          </mxGeometry>
        </mxCell>
        <mxCell id="X0OYVDZu3qmuTNWSu-ND-62" value="Practical_info" style="shape=table;startSize=20;container=1;collapsible=0;childLayout=tableLayout;" vertex="1" parent="1">
          <mxGeometry x="230" y="630" width="250" height="40" as="geometry" />
        </mxCell>
        <mxCell id="X0OYVDZu3qmuTNWSu-ND-63" value="" style="shape=tableRow;horizontal=0;startSize=0;swimlaneHead=0;swimlaneBody=0;strokeColor=inherit;top=0;left=0;bottom=0;right=0;collapsible=0;dropTarget=0;fillColor=none;points=[[0,0.5],[1,0.5]];portConstraint=eastwest;" vertex="1" parent="X0OYVDZu3qmuTNWSu-ND-62">
          <mxGeometry y="20" width="250" height="20" as="geometry" />
        </mxCell>
        <mxCell id="X0OYVDZu3qmuTNWSu-ND-64" value="Practical_ID" style="shape=partialRectangle;html=1;whiteSpace=wrap;connectable=0;strokeColor=inherit;overflow=hidden;fillColor=none;top=0;left=0;bottom=0;right=0;pointerEvents=1;" vertex="1" parent="X0OYVDZu3qmuTNWSu-ND-63">
          <mxGeometry width="83" height="20" as="geometry">
            <mxRectangle width="83" height="20" as="alternateBounds" />
          </mxGeometry>
        </mxCell>
        <mxCell id="X0OYVDZu3qmuTNWSu-ND-65" value="Name" style="shape=partialRectangle;html=1;whiteSpace=wrap;connectable=0;strokeColor=inherit;overflow=hidden;fillColor=none;top=0;left=0;bottom=0;right=0;pointerEvents=1;" vertex="1" parent="X0OYVDZu3qmuTNWSu-ND-63">
          <mxGeometry x="83" width="84" height="20" as="geometry">
            <mxRectangle width="84" height="20" as="alternateBounds" />
          </mxGeometry>
        </mxCell>
        <mxCell id="X0OYVDZu3qmuTNWSu-ND-66" value="Subject_ID" style="shape=partialRectangle;html=1;whiteSpace=wrap;connectable=0;strokeColor=inherit;overflow=hidden;fillColor=none;top=0;left=0;bottom=0;right=0;pointerEvents=1;" vertex="1" parent="X0OYVDZu3qmuTNWSu-ND-63">
          <mxGeometry x="167" width="83" height="20" as="geometry">
            <mxRectangle width="83" height="20" as="alternateBounds" />
          </mxGeometry>
        </mxCell>
        <mxCell id="X0OYVDZu3qmuTNWSu-ND-68" value="Practicals" style="shape=table;startSize=20;container=1;collapsible=0;childLayout=tableLayout;" vertex="1" parent="1">
          <mxGeometry x="160" y="710" width="450" height="40" as="geometry" />
        </mxCell>
        <mxCell id="X0OYVDZu3qmuTNWSu-ND-69" value="" style="shape=tableRow;horizontal=0;startSize=0;swimlaneHead=0;swimlaneBody=0;strokeColor=inherit;top=0;left=0;bottom=0;right=0;collapsible=0;dropTarget=0;fillColor=none;points=[[0,0.5],[1,0.5]];portConstraint=eastwest;" vertex="1" parent="X0OYVDZu3qmuTNWSu-ND-68">
          <mxGeometry y="20" width="450" height="20" as="geometry" />
        </mxCell>
        <mxCell id="X0OYVDZu3qmuTNWSu-ND-70" value="Subject_ID" style="shape=partialRectangle;html=1;whiteSpace=wrap;connectable=0;strokeColor=inherit;overflow=hidden;fillColor=none;top=0;left=0;bottom=0;right=0;pointerEvents=1;" vertex="1" parent="X0OYVDZu3qmuTNWSu-ND-69">
          <mxGeometry width="113" height="20" as="geometry">
            <mxRectangle width="113" height="20" as="alternateBounds" />
          </mxGeometry>
        </mxCell>
        <mxCell id="X0OYVDZu3qmuTNWSu-ND-71" value="Practical_ID" style="shape=partialRectangle;html=1;whiteSpace=wrap;connectable=0;strokeColor=inherit;overflow=hidden;fillColor=none;top=0;left=0;bottom=0;right=0;pointerEvents=1;" vertex="1" parent="X0OYVDZu3qmuTNWSu-ND-69">
          <mxGeometry x="113" width="112" height="20" as="geometry">
            <mxRectangle width="112" height="20" as="alternateBounds" />
          </mxGeometry>
        </mxCell>
        <mxCell id="X0OYVDZu3qmuTNWSu-ND-72" value="Lab_code" style="shape=partialRectangle;html=1;whiteSpace=wrap;connectable=0;strokeColor=inherit;overflow=hidden;fillColor=none;top=0;left=0;bottom=0;right=0;pointerEvents=1;" vertex="1" parent="X0OYVDZu3qmuTNWSu-ND-69">
          <mxGeometry x="225" width="113" height="20" as="geometry">
            <mxRectangle width="113" height="20" as="alternateBounds" />
          </mxGeometry>
        </mxCell>
        <mxCell id="X0OYVDZu3qmuTNWSu-ND-73" value="To_ID" style="shape=partialRectangle;html=1;whiteSpace=wrap;connectable=0;strokeColor=inherit;overflow=hidden;fillColor=none;top=0;left=0;bottom=0;right=0;pointerEvents=1;" vertex="1" parent="X0OYVDZu3qmuTNWSu-ND-69">
          <mxGeometry x="338" width="112" height="20" as="geometry">
            <mxRectangle width="112" height="20" as="alternateBounds" />
          </mxGeometry>
        </mxCell>
        <mxCell id="X0OYVDZu3qmuTNWSu-ND-74" value="Enrollment" style="shape=table;startSize=20;container=1;collapsible=0;childLayout=tableLayout;" vertex="1" parent="1">
          <mxGeometry x="205" y="800" width="360" height="40" as="geometry" />
        </mxCell>
        <mxCell id="X0OYVDZu3qmuTNWSu-ND-75" value="" style="shape=tableRow;horizontal=0;startSize=0;swimlaneHead=0;swimlaneBody=0;strokeColor=inherit;top=0;left=0;bottom=0;right=0;collapsible=0;dropTarget=0;fillColor=none;points=[[0,0.5],[1,0.5]];portConstraint=eastwest;" vertex="1" parent="X0OYVDZu3qmuTNWSu-ND-74">
          <mxGeometry y="20" width="360" height="20" as="geometry" />
        </mxCell>
        <mxCell id="X0OYVDZu3qmuTNWSu-ND-76" value="Student_ID" style="shape=partialRectangle;html=1;whiteSpace=wrap;connectable=0;strokeColor=inherit;overflow=hidden;fillColor=none;top=0;left=0;bottom=0;right=0;pointerEvents=1;" vertex="1" parent="X0OYVDZu3qmuTNWSu-ND-75">
          <mxGeometry width="90" height="20" as="geometry">
            <mxRectangle width="90" height="20" as="alternateBounds" />
          </mxGeometry>
        </mxCell>
        <mxCell id="X0OYVDZu3qmuTNWSu-ND-77" value="Subject_ID" style="shape=partialRectangle;html=1;whiteSpace=wrap;connectable=0;strokeColor=inherit;overflow=hidden;fillColor=none;top=0;left=0;bottom=0;right=0;pointerEvents=1;" vertex="1" parent="X0OYVDZu3qmuTNWSu-ND-75">
          <mxGeometry x="90" width="90" height="20" as="geometry">
            <mxRectangle width="90" height="20" as="alternateBounds" />
          </mxGeometry>
        </mxCell>
        <mxCell id="X0OYVDZu3qmuTNWSu-ND-78" value="Lecturer_ID" style="shape=partialRectangle;html=1;whiteSpace=wrap;connectable=0;strokeColor=inherit;overflow=hidden;fillColor=none;top=0;left=0;bottom=0;right=0;pointerEvents=1;" vertex="1" parent="X0OYVDZu3qmuTNWSu-ND-75">
          <mxGeometry x="180" width="90" height="20" as="geometry">
            <mxRectangle width="90" height="20" as="alternateBounds" />
          </mxGeometry>
        </mxCell>
        <mxCell id="X0OYVDZu3qmuTNWSu-ND-79" value="Instructor_ID" style="shape=partialRectangle;html=1;whiteSpace=wrap;connectable=0;strokeColor=inherit;overflow=hidden;fillColor=none;top=0;left=0;bottom=0;right=0;pointerEvents=1;" vertex="1" parent="X0OYVDZu3qmuTNWSu-ND-75">
          <mxGeometry x="270" width="90" height="20" as="geometry">
            <mxRectangle width="90" height="20" as="alternateBounds" />
          </mxGeometry>
        </mxCell>
        <mxCell id="X0OYVDZu3qmuTNWSu-ND-80" value="department" style="shape=table;startSize=20;container=1;collapsible=0;childLayout=tableLayout;" vertex="1" parent="1">
          <mxGeometry x="280" y="410" width="240" height="40" as="geometry" />
        </mxCell>
        <mxCell id="X0OYVDZu3qmuTNWSu-ND-81" value="" style="shape=tableRow;horizontal=0;startSize=0;swimlaneHead=0;swimlaneBody=0;strokeColor=inherit;top=0;left=0;bottom=0;right=0;collapsible=0;dropTarget=0;fillColor=none;points=[[0,0.5],[1,0.5]];portConstraint=eastwest;" vertex="1" parent="X0OYVDZu3qmuTNWSu-ND-80">
          <mxGeometry y="20" width="240" height="20" as="geometry" />
        </mxCell>
        <mxCell id="X0OYVDZu3qmuTNWSu-ND-82" value="Dept_ID" style="shape=partialRectangle;html=1;whiteSpace=wrap;connectable=0;strokeColor=inherit;overflow=hidden;fillColor=none;top=0;left=0;bottom=0;right=0;pointerEvents=1;" vertex="1" parent="X0OYVDZu3qmuTNWSu-ND-81">
          <mxGeometry width="120" height="20" as="geometry">
            <mxRectangle width="120" height="20" as="alternateBounds" />
          </mxGeometry>
        </mxCell>
        <mxCell id="X0OYVDZu3qmuTNWSu-ND-83" value="Dept_Name" style="shape=partialRectangle;html=1;whiteSpace=wrap;connectable=0;strokeColor=inherit;overflow=hidden;fillColor=none;top=0;left=0;bottom=0;right=0;pointerEvents=1;" vertex="1" parent="X0OYVDZu3qmuTNWSu-ND-81">
          <mxGeometry x="120" width="120" height="20" as="geometry">
            <mxRectangle width="120" height="20" as="alternateBounds" />
          </mxGeometry>
        </mxCell>
        <mxCell id="X0OYVDZu3qmuTNWSu-ND-91" value="" style="group" vertex="1" connectable="0" parent="1">
          <mxGeometry x="200" y="60" width="70" height="60" as="geometry" />
        </mxCell>
        <mxCell id="X0OYVDZu3qmuTNWSu-ND-92" value="" style="group" vertex="1" connectable="0" parent="X0OYVDZu3qmuTNWSu-ND-91">
          <mxGeometry width="70" height="60" as="geometry" />
        </mxCell>
        <mxCell id="X0OYVDZu3qmuTNWSu-ND-88" value="" style="edgeStyle=elbowEdgeStyle;elbow=vertical;endArrow=classic;html=1;curved=0;rounded=0;endSize=8;startSize=8;entryX=0.172;entryY=0.831;entryDx=0;entryDy=0;entryPerimeter=0;exitX=0;exitY=0;exitDx=0;exitDy=0;" edge="1" parent="X0OYVDZu3qmuTNWSu-ND-92" source="X0OYVDZu3qmuTNWSu-ND-90" target="X0OYVDZu3qmuTNWSu-ND-5">
          <mxGeometry width="50" height="50" relative="1" as="geometry">
            <mxPoint y="30" as="sourcePoint" />
            <mxPoint x="20" y="-20" as="targetPoint" />
            <Array as="points">
              <mxPoint x="70" />
            </Array>
          </mxGeometry>
        </mxCell>
        <mxCell id="X0OYVDZu3qmuTNWSu-ND-90" value="" style="shape=partialRectangle;whiteSpace=wrap;html=1;bottom=1;right=1;left=1;top=0;fillColor=none;routingCenterX=-0.5;" vertex="1" parent="X0OYVDZu3qmuTNWSu-ND-92">
          <mxGeometry y="50" width="50" height="10" as="geometry" />
        </mxCell>
        <mxCell id="X0OYVDZu3qmuTNWSu-ND-101" value="" style="shape=partialRectangle;whiteSpace=wrap;html=1;bottom=0;right=0;fillColor=none;direction=north;" vertex="1" parent="1">
          <mxGeometry x="200" y="120" width="50" height="60" as="geometry" />
        </mxCell>
        <mxCell id="X0OYVDZu3qmuTNWSu-ND-103" value="" style="endArrow=none;html=1;rounded=0;exitX=0;exitY=1;exitDx=0;exitDy=0;entryX=0.071;entryY=0.922;entryDx=0;entryDy=0;entryPerimeter=0;" edge="1" parent="1" source="X0OYVDZu3qmuTNWSu-ND-101" target="X0OYVDZu3qmuTNWSu-ND-19">
          <mxGeometry width="50" height="50" relative="1" as="geometry">
            <mxPoint x="380" y="330" as="sourcePoint" />
            <mxPoint x="270" y="180" as="targetPoint" />
          </mxGeometry>
        </mxCell>
        <mxCell id="X0OYVDZu3qmuTNWSu-ND-104" value="" style="shape=partialRectangle;whiteSpace=wrap;html=1;bottom=0;right=0;fillColor=none;direction=north;" vertex="1" parent="1">
          <mxGeometry x="200" y="180" width="50" height="80" as="geometry" />
        </mxCell>
        <mxCell id="X0OYVDZu3qmuTNWSu-ND-106" value="" style="endArrow=none;html=1;rounded=0;entryX=0.188;entryY=1.01;entryDx=0;entryDy=0;entryPerimeter=0;exitX=0;exitY=1;exitDx=0;exitDy=0;" edge="1" parent="1">
          <mxGeometry width="50" height="50" relative="1" as="geometry">
            <mxPoint x="250" y="260" as="sourcePoint" />
            <mxPoint x="250.5" y="241.20000000000005" as="targetPoint" />
          </mxGeometry>
        </mxCell>
        <mxCell id="X0OYVDZu3qmuTNWSu-ND-107" value="" style="endArrow=none;html=1;rounded=0;entryX=0.077;entryY=1.094;entryDx=0;entryDy=0;entryPerimeter=0;exitX=0;exitY=1;exitDx=0;exitDy=0;" edge="1" parent="1" target="X0OYVDZu3qmuTNWSu-ND-37">
          <mxGeometry width="50" height="50" relative="1" as="geometry">
            <mxPoint x="250" y="330" as="sourcePoint" />
            <mxPoint x="430" y="250" as="targetPoint" />
          </mxGeometry>
        </mxCell>
        <mxCell id="X0OYVDZu3qmuTNWSu-ND-108" value="" style="shape=partialRectangle;whiteSpace=wrap;html=1;bottom=0;right=0;fillColor=none;direction=north;" vertex="1" parent="1">
          <mxGeometry x="200" y="260" width="50" height="70" as="geometry" />
        </mxCell>
        <mxCell id="X0OYVDZu3qmuTNWSu-ND-116" value="" style="endArrow=classic;html=1;rounded=0;entryX=0.828;entryY=0.97;entryDx=0;entryDy=0;entryPerimeter=0;exitX=1;exitY=0.25;exitDx=0;exitDy=0;" edge="1" parent="1" source="X0OYVDZu3qmuTNWSu-ND-9" target="X0OYVDZu3qmuTNWSu-ND-5">
          <mxGeometry width="50" height="50" relative="1" as="geometry">
            <mxPoint x="450" y="280" as="sourcePoint" />
            <mxPoint x="500" y="230" as="targetPoint" />
            <Array as="points">
              <mxPoint x="670" y="80" />
              <mxPoint x="670" y="60" />
              <mxPoint x="479" y="60" />
            </Array>
          </mxGeometry>
        </mxCell>
        <mxCell id="X0OYVDZu3qmuTNWSu-ND-118" value="" style="endArrow=classic;html=1;rounded=0;exitX=0.643;exitY=1.053;exitDx=0;exitDy=0;exitPerimeter=0;entryX=0.13;entryY=1.002;entryDx=0;entryDy=0;entryPerimeter=0;" edge="1" parent="1" target="X0OYVDZu3qmuTNWSu-ND-81">
          <mxGeometry width="50" height="50" relative="1" as="geometry">
            <mxPoint x="490.05999999999995" y="120.00000000000006" as="sourcePoint" />
            <mxPoint x="359.9999999999999" y="464.31999999999994" as="targetPoint" />
            <Array as="points">
              <mxPoint x="490" y="128.94" />
              <mxPoint x="692.4" y="127.88" />
              <mxPoint x="692.4" y="477.88" />
              <mxPoint x="310" y="480" />
            </Array>
          </mxGeometry>
        </mxCell>
        <mxCell id="X0OYVDZu3qmuTNWSu-ND-119" value="" style="endArrow=classic;html=1;rounded=0;exitX=0.643;exitY=1;exitDx=0;exitDy=0;exitPerimeter=0;entryX=0.173;entryY=0.874;entryDx=0;entryDy=0;entryPerimeter=0;" edge="1" parent="1" target="X0OYVDZu3qmuTNWSu-ND-81">
          <mxGeometry width="50" height="50" relative="1" as="geometry">
            <mxPoint x="481.73999999999995" y="170" as="sourcePoint" />
            <mxPoint x="360.00000000000017" y="449.64" as="targetPoint" />
            <Array as="points">
              <mxPoint x="481.68" y="180" />
              <mxPoint x="681.68" y="180" />
              <mxPoint x="681.68" y="470" />
              <mxPoint x="320" y="470" />
            </Array>
          </mxGeometry>
        </mxCell>
        <mxCell id="X0OYVDZu3qmuTNWSu-ND-120" value="" style="endArrow=classic;html=1;rounded=0;exitX=0.638;exitY=1.102;exitDx=0;exitDy=0;exitPerimeter=0;entryX=0.256;entryY=1.002;entryDx=0;entryDy=0;entryPerimeter=0;" edge="1" parent="1" source="X0OYVDZu3qmuTNWSu-ND-28" target="X0OYVDZu3qmuTNWSu-ND-81">
          <mxGeometry width="50" height="50" relative="1" as="geometry">
            <mxPoint x="490.05999999999995" y="250.00000000000003" as="sourcePoint" />
            <mxPoint x="379.1200000000001" y="461.19999999999993" as="targetPoint" />
            <Array as="points">
              <mxPoint x="490" y="260.52" />
              <mxPoint x="680" y="260.52" />
              <mxPoint x="680" y="470.52" />
              <mxPoint x="340" y="471" />
            </Array>
          </mxGeometry>
        </mxCell>
        <mxCell id="X0OYVDZu3qmuTNWSu-ND-121" value="" style="endArrow=classic;html=1;rounded=0;exitX=0.644;exitY=1.122;exitDx=0;exitDy=0;exitPerimeter=0;entryX=0.317;entryY=1.002;entryDx=0;entryDy=0;entryPerimeter=0;" edge="1" parent="1" source="X0OYVDZu3qmuTNWSu-ND-37" target="X0OYVDZu3qmuTNWSu-ND-81">
          <mxGeometry width="50" height="50" relative="1" as="geometry">
            <mxPoint x="450" y="280" as="sourcePoint" />
            <mxPoint x="570" y="450" as="targetPoint" />
            <Array as="points">
              <mxPoint x="490" y="320" />
              <mxPoint x="660" y="320" />
              <mxPoint x="660" y="460" />
              <mxPoint x="370" y="460" />
            </Array>
          </mxGeometry>
        </mxCell>
        <mxCell id="X0OYVDZu3qmuTNWSu-ND-122" value="" style="endArrow=classic;html=1;rounded=0;exitX=0.867;exitY=1.002;exitDx=0;exitDy=0;exitPerimeter=0;entryX=0.174;entryY=0.982;entryDx=0;entryDy=0;entryPerimeter=0;" edge="1" parent="1" source="X0OYVDZu3qmuTNWSu-ND-57">
          <mxGeometry width="50" height="50" relative="1" as="geometry">
            <mxPoint x="530.22" y="615.2199999999999" as="sourcePoint" />
            <mxPoint x="341.32000000000016" y="544.8199999999998" as="targetPoint" />
            <Array as="points">
              <mxPoint x="530" y="635.18" />
              <mxPoint x="620" y="635.18" />
              <mxPoint x="620" y="555.18" />
              <mxPoint x="340" y="555.18" />
            </Array>
          </mxGeometry>
        </mxCell>
        <mxCell id="X0OYVDZu3qmuTNWSu-ND-123" value="" style="endArrow=classic;html=1;rounded=0;exitX=0.829;exitY=1.046;exitDx=0;exitDy=0;exitPerimeter=0;entryX=0.082;entryY=1.098;entryDx=0;entryDy=0;entryPerimeter=0;" edge="1" parent="1" source="X0OYVDZu3qmuTNWSu-ND-52" target="X0OYVDZu3qmuTNWSu-ND-81">
          <mxGeometry width="50" height="50" relative="1" as="geometry">
            <mxPoint x="450" y="520" as="sourcePoint" />
            <mxPoint x="180" y="490" as="targetPoint" />
            <Array as="points">
              <mxPoint x="459" y="550" />
              <mxPoint x="490" y="550" />
              <mxPoint x="520" y="550" />
              <mxPoint x="520" y="490" />
              <mxPoint x="300" y="490" />
            </Array>
          </mxGeometry>
        </mxCell>
        <mxCell id="X0OYVDZu3qmuTNWSu-ND-124" value="" style="endArrow=classic;html=1;rounded=0;entryX=0.045;entryY=1.066;entryDx=0;entryDy=0;entryPerimeter=0;exitX=0.874;exitY=1.046;exitDx=0;exitDy=0;exitPerimeter=0;" edge="1" parent="1" source="X0OYVDZu3qmuTNWSu-ND-46" target="X0OYVDZu3qmuTNWSu-ND-81">
          <mxGeometry width="50" height="50" relative="1" as="geometry">
            <mxPoint x="450" y="430" as="sourcePoint" />
            <mxPoint x="250" y="560" as="targetPoint" />
            <Array as="points">
              <mxPoint x="490" y="400" />
              <mxPoint x="270" y="400" />
              <mxPoint x="270" y="470" />
              <mxPoint x="290" y="470" />
            </Array>
          </mxGeometry>
        </mxCell>
        <mxCell id="X0OYVDZu3qmuTNWSu-ND-125" value="" style="endArrow=classic;html=1;rounded=0;entryX=0.16;entryY=1.206;entryDx=0;entryDy=0;entryPerimeter=0;exitX=0.878;exitY=1.01;exitDx=0;exitDy=0;exitPerimeter=0;" edge="1" parent="1" source="X0OYVDZu3qmuTNWSu-ND-63" target="X0OYVDZu3qmuTNWSu-ND-46">
          <mxGeometry width="50" height="50" relative="1" as="geometry">
            <mxPoint x="450" y="680" as="sourcePoint" />
            <mxPoint x="610" y="690" as="targetPoint" />
            <Array as="points">
              <mxPoint x="450" y="690" />
              <mxPoint x="160" y="690" />
              <mxPoint x="160" y="400" />
              <mxPoint x="300" y="390" />
            </Array>
          </mxGeometry>
        </mxCell>
        <mxCell id="X0OYVDZu3qmuTNWSu-ND-126" value="" style="endArrow=none;html=1;rounded=0;entryX=1;entryY=0.25;entryDx=0;entryDy=0;" edge="1" parent="1" target="X0OYVDZu3qmuTNWSu-ND-18">
          <mxGeometry width="50" height="50" relative="1" as="geometry">
            <mxPoint x="670" y="60" as="sourcePoint" />
            <mxPoint x="520" y="230" as="targetPoint" />
            <Array as="points">
              <mxPoint x="720" y="60" />
              <mxPoint x="720" y="140" />
            </Array>
          </mxGeometry>
        </mxCell>
        <mxCell id="X0OYVDZu3qmuTNWSu-ND-127" value="" style="endArrow=none;html=1;rounded=0;entryX=1;entryY=0.25;entryDx=0;entryDy=0;" edge="1" parent="1" target="X0OYVDZu3qmuTNWSu-ND-27">
          <mxGeometry width="50" height="50" relative="1" as="geometry">
            <mxPoint x="720" y="60" as="sourcePoint" />
            <mxPoint x="520" y="230" as="targetPoint" />
            <Array as="points">
              <mxPoint x="740" y="60" />
              <mxPoint x="740" y="210" />
            </Array>
          </mxGeometry>
        </mxCell>
        <mxCell id="X0OYVDZu3qmuTNWSu-ND-128" value="" style="endArrow=none;html=1;rounded=0;exitX=1;exitY=0.25;exitDx=0;exitDy=0;" edge="1" parent="1" source="X0OYVDZu3qmuTNWSu-ND-36">
          <mxGeometry width="50" height="50" relative="1" as="geometry">
            <mxPoint x="470" y="280" as="sourcePoint" />
            <mxPoint x="740" y="210" as="targetPoint" />
            <Array as="points">
              <mxPoint x="740" y="280" />
            </Array>
          </mxGeometry>
        </mxCell>
        <mxCell id="X0OYVDZu3qmuTNWSu-ND-129" value="" style="endArrow=classic;html=1;rounded=0;entryX=0;entryY=0.5;entryDx=0;entryDy=0;exitX=0.086;exitY=1.054;exitDx=0;exitDy=0;exitPerimeter=0;" edge="1" parent="1">
          <mxGeometry width="50" height="50" relative="1" as="geometry">
            <mxPoint x="198.70000000000005" y="741.0799999999999" as="sourcePoint" />
            <mxPoint x="280" y="359.9999999999999" as="targetPoint" />
            <Array as="points">
              <mxPoint x="200" y="760" />
              <mxPoint x="150" y="760" />
              <mxPoint x="150" y="370" />
            </Array>
          </mxGeometry>
        </mxCell>
        <mxCell id="X0OYVDZu3qmuTNWSu-ND-132" value="" style="endArrow=classic;html=1;rounded=0;entryX=0.187;entryY=1.01;entryDx=0;entryDy=0;entryPerimeter=0;exitX=0.356;exitY=0.958;exitDx=0;exitDy=0;exitPerimeter=0;" edge="1" parent="1">
          <mxGeometry width="50" height="50" relative="1" as="geometry">
            <mxPoint x="325.1" y="738.9599999999998" as="sourcePoint" />
            <mxPoint x="281.65" y="660" as="targetPoint" />
            <Array as="points">
              <mxPoint x="324.9" y="769.8" />
              <mxPoint x="144.9" y="769.8" />
              <mxPoint x="144.9" y="669.8" />
              <mxPoint x="281.9" y="669.8" />
            </Array>
          </mxGeometry>
        </mxCell>
        <mxCell id="X0OYVDZu3qmuTNWSu-ND-133" value="" style="endArrow=classic;html=1;rounded=0;exitX=0.615;exitY=1.118;exitDx=0;exitDy=0;exitPerimeter=0;" edge="1" parent="1">
          <mxGeometry width="50" height="50" relative="1" as="geometry">
            <mxPoint x="436.75" y="742.3600000000001" as="sourcePoint" />
            <mxPoint x="330" y="530" as="targetPoint" />
            <Array as="points">
              <mxPoint x="440" y="780" />
              <mxPoint x="120" y="780" />
              <mxPoint x="120" y="540" />
              <mxPoint x="330" y="540" />
            </Array>
          </mxGeometry>
        </mxCell>
        <mxCell id="X0OYVDZu3qmuTNWSu-ND-134" value="" style="endArrow=classic;html=1;rounded=0;exitX=0.875;exitY=1.086;exitDx=0;exitDy=0;exitPerimeter=0;entryX=0.028;entryY=0.994;entryDx=0;entryDy=0;entryPerimeter=0;" edge="1" parent="1">
          <mxGeometry width="50" height="50" relative="1" as="geometry">
            <mxPoint x="563.75" y="751.8399999999999" as="sourcePoint" />
            <mxPoint x="241.76" y="230" as="targetPoint" />
            <Array as="points">
              <mxPoint x="570" y="790.1199999999999" />
              <mxPoint x="120" y="790.1199999999999" />
              <mxPoint x="110" y="240.12" />
              <mxPoint x="230" y="240.12" />
            </Array>
          </mxGeometry>
        </mxCell>
        <mxCell id="X0OYVDZu3qmuTNWSu-ND-136" value="" style="endArrow=classic;html=1;rounded=0;entryX=0.107;entryY=1.05;entryDx=0;entryDy=0;entryPerimeter=0;" edge="1" parent="1">
          <mxGeometry width="50" height="50" relative="1" as="geometry">
            <mxPoint x="250" y="840" as="sourcePoint" />
            <mxPoint x="264.9399999999998" y="100" as="targetPoint" />
            <Array as="points">
              <mxPoint x="250" y="859" />
              <mxPoint x="100" y="859" />
              <mxPoint x="100" y="119" />
              <mxPoint x="170" y="119" />
              <mxPoint x="270" y="109" />
            </Array>
          </mxGeometry>
        </mxCell>
        <mxCell id="X0OYVDZu3qmuTNWSu-ND-137" value="" style="endArrow=none;html=1;rounded=0;" edge="1" parent="1">
          <mxGeometry width="50" height="50" relative="1" as="geometry">
            <mxPoint x="340" y="840" as="sourcePoint" />
            <mxPoint x="150" y="760" as="targetPoint" />
            <Array as="points">
              <mxPoint x="340" y="870" />
              <mxPoint x="150" y="870" />
            </Array>
          </mxGeometry>
        </mxCell>
        <mxCell id="X0OYVDZu3qmuTNWSu-ND-138" value="" style="endArrow=classic;html=1;rounded=0;entryX=0.097;entryY=1.033;entryDx=0;entryDy=0;entryPerimeter=0;" edge="1" parent="1">
          <mxGeometry width="50" height="50" relative="1" as="geometry">
            <mxPoint x="435" y="840" as="sourcePoint" />
            <mxPoint x="270.74" y="160.33000000000007" as="targetPoint" />
            <Array as="points">
              <mxPoint x="430" y="879.67" />
              <mxPoint x="100" y="879.67" />
              <mxPoint x="100" y="179.67" />
              <mxPoint x="270" y="179.67" />
            </Array>
          </mxGeometry>
        </mxCell>
        <mxCell id="X0OYVDZu3qmuTNWSu-ND-139" value="" style="endArrow=classic;html=1;rounded=0;entryX=0.098;entryY=1.133;entryDx=0;entryDy=0;entryPerimeter=0;" edge="1" parent="1">
          <mxGeometry width="50" height="50" relative="1" as="geometry">
            <mxPoint x="520" y="840" as="sourcePoint" />
            <mxPoint x="261.1600000000001" y="299.99999999999994" as="targetPoint" />
            <Array as="points">
              <mxPoint x="520" y="887.34" />
              <mxPoint x="80" y="887.34" />
              <mxPoint x="80" y="347.34" />
              <mxPoint x="90" y="337.34" />
              <mxPoint x="110" y="347.34" />
              <mxPoint x="260" y="347.34" />
            </Array>
          </mxGeometry>
        </mxCell>
      </root>
    </mxGraphModel>
  </diagram>
</mxfile>
